<svg width="52" height="52" viewBox="0 0 52 52" fill="none" xmlns="http://www.w3.org/2000/svg">
<circle cx="26" cy="26" r="26" transform="matrix(-1 0 0 1 52 0)" fill="#FF9900"/>
<path d="M35.7071 25.2929C36.0976 25.6834 36.0976 26.3166 35.7071 26.7071L29.3431 33.0711C28.9526 33.4616 28.3195 33.4616 27.9289 33.0711C27.5384 32.6805 27.5384 32.0474 27.9289 31.6569L33.5858 26L27.9289 20.3431C27.5384 19.9526 27.5384 19.3195 27.9289 18.9289C28.3195 18.5384 28.9526 18.5384 29.3431 18.9289L35.7071 25.2929ZM17 25L35 25L35 27L17 27L17 25Z" fill="white"/>
</svg>
