<svg width="33" height="33" viewBox="0 0 33 33" fill="none" xmlns="http://www.w3.org/2000/svg">
<path d="M28.17 23.5674L22.5806 18.4854C22.3164 18.2453 21.9692 18.1172 21.6124 18.1282C21.2555 18.1393 20.9169 18.2885 20.668 18.5445L17.3776 21.9284C16.5856 21.7772 14.9934 21.2808 13.3544 19.6459C11.7154 18.0055 11.219 16.4092 11.0719 15.6227L14.453 12.3309C14.7093 12.0822 14.8588 11.7435 14.8699 11.3866C14.8809 11.0296 14.7526 10.6823 14.5121 10.4183L9.43151 4.83028C9.19095 4.56539 8.8566 4.40472 8.49947 4.38238C8.14235 4.36005 7.79059 4.47781 7.51889 4.71065L4.53514 7.26953C4.29742 7.50811 4.15553 7.82565 4.13639 8.1619C4.11576 8.50565 3.72251 16.6484 10.0365 22.9652C15.5448 28.472 22.4445 28.8749 24.3448 28.8749C24.6225 28.8749 24.793 28.8667 24.8384 28.8639C25.1746 28.8451 25.492 28.7026 25.7294 28.4638L28.2869 25.4787C28.5207 25.2078 28.6393 24.8563 28.6174 24.4992C28.5956 24.1421 28.435 23.8077 28.17 23.5674Z" fill="#FF9900"/>
</svg>
