<svg width="30" height="29" viewBox="0 0 30 29" fill="none" xmlns="http://www.w3.org/2000/svg">
<g clip-path="url(#clip0_892_34)">
<path d="M14.9004 -0.00012207C6.9882 -0.00012207 0.574219 6.41386 0.574219 14.326C0.574219 22.2382 6.9882 28.6522 14.9004 28.6522C22.8126 28.6522 29.2266 22.2382 29.2266 14.326C29.2266 6.41386 22.8126 -0.00012207 14.9004 -0.00012207Z" fill="#40B3E0"/>
<path d="M21.874 8.2408L19.3151 21.1421C19.3151 21.1421 18.9573 22.0368 17.9732 21.6073L12.0683 17.0803L9.9212 16.0425L6.30675 14.8257C6.30675 14.8257 5.75206 14.6289 5.69834 14.1995C5.64461 13.77 6.32466 13.5375 6.32466 13.5375L20.6929 7.901C20.6929 7.901 21.8739 7.38213 21.8739 8.24103" fill="white"/>
<path d="M11.6114 20.997C11.6114 20.997 11.439 20.9809 11.2241 20.3009C11.0096 19.6209 9.91797 16.0423 9.91797 16.0423L18.5963 10.5312C18.5963 10.5312 19.0974 10.227 19.0794 10.5312C19.0794 10.5312 19.1689 10.5849 18.9004 10.8354C18.6321 11.086 12.0831 16.9728 12.0831 16.9728" fill="#D2E5F1"/>
<path d="M14.3272 18.8158L11.9917 20.9453C11.9917 20.9453 11.809 21.0838 11.6094 20.997L12.0566 17.0416" fill="#B5CFE4"/>
</g>
<defs>
<clipPath id="clip0_892_34">
<rect width="28.6523" height="28.6523" fill="white" transform="translate(0.574219 -0.00012207)"/>
</clipPath>
</defs>
</svg>
