<svg width="29" height="29" viewBox="0 0 29 29" fill="none" xmlns="http://www.w3.org/2000/svg">
<g clip-path="url(#clip0_892_31)">
<path d="M6.8304 25.9807L7.36042 26.245C9.56915 27.566 12.0427 28.1825 14.5164 28.1825C22.2906 28.1825 28.6514 21.8414 28.6514 14.0912C28.6514 10.3923 27.1495 6.78134 24.4992 4.13918C21.8489 1.49702 18.315 -0.00012207 14.5164 -0.00012207C6.74213 -0.00012207 0.38126 6.34096 0.46966 14.1793C0.46966 16.8214 1.26475 19.3755 2.58986 21.5772L2.94321 22.1057L1.52983 27.3019L6.8304 25.9807Z" fill="#00E676"/>
<path d="M22.2311 17.8301L21.2597 17.3921C21.2597 17.3921 19.8469 16.7789 18.9637 16.3409C18.8754 16.3409 18.7871 16.2532 18.6988 16.2532C18.4338 16.2532 18.2572 16.3409 18.0806 16.4285C18.0806 16.4285 17.9923 16.5161 16.756 17.9176C16.6676 18.0928 16.491 18.1804 16.3144 18.1804H16.226C16.1378 18.1804 15.9612 18.0928 15.8728 18.0052L15.4312 17.8301C14.4598 17.3921 13.5768 16.8664 12.8702 16.1657C12.6936 15.9905 12.4287 15.8154 12.252 15.6402C11.6339 15.027 11.0157 14.3262 10.5742 13.5378L10.4859 13.3627C10.3976 13.275 10.3976 13.1875 10.3092 13.0123C10.3092 12.8371 10.3092 12.662 10.3976 12.5743C10.3976 12.5743 10.7508 12.1363 11.0157 11.8736C11.1924 11.6983 11.2806 11.4356 11.4573 11.2604C11.6339 10.9976 11.7222 10.6473 11.6339 10.3844C11.5456 9.94643 10.4859 7.58138 10.221 7.05586C10.0443 6.79303 9.8678 6.70551 9.60282 6.61786H8.63142C8.45469 6.61786 8.27821 6.70551 8.10148 6.70551L8.01311 6.79303C7.8365 6.88068 7.6599 7.05586 7.48329 7.14338C7.30669 7.31868 7.21832 7.49373 7.04171 7.66903C6.42353 8.45738 6.07031 9.42091 6.07031 10.3844C6.07031 11.0851 6.24692 11.786 6.51189 12.3991L6.60026 12.662C7.39505 14.3262 8.45469 15.8154 9.8678 17.1292L10.221 17.4796C10.4859 17.7424 10.7508 17.9176 10.9274 18.1803C12.782 19.7571 14.9014 20.8958 17.2858 21.509C17.5507 21.5965 17.904 21.5965 18.1689 21.6842H19.052C19.4935 21.6842 20.0234 21.509 20.3767 21.3338C20.6416 21.1586 20.8182 21.1586 20.9948 20.9835L21.1715 20.8082C21.3481 20.633 21.5247 20.5455 21.7013 20.3703C21.8779 20.1951 22.0545 20.0199 22.1429 19.8446C22.3195 19.4943 22.4077 19.0563 22.4961 18.6184V18.0052C22.4961 18.0052 22.4077 17.9176 22.2311 17.8301Z" fill="white"/>
</g>
<defs>
<clipPath id="clip0_892_31">
<rect width="28.6523" height="28.6523" fill="white"/>
</clipPath>
</defs>
</svg>
